<?xml version="1.0" encoding="UTF-8" standalone="no"?>
<!DOCTYPE svg PUBLIC "-//W3C//DTD SVG 1.1//EN" "http://www.w3.org/Graphics/SVG/1.1/DTD/svg11.dtd">
<svg xmlns="http://www.w3.org/2000/svg" xmlns:xlink="http://www.w3.org/1999/xlink" version="1.1" width="1080pt" height="1080pt" viewBox="0 0 1080 1080">
<g enable-background="new">
<g id="Layer-1" data-name="Layer 1">
<clipPath id="cp0">
<path transform="matrix(1,0,0,-1,0,1080)" d="M 0 1080 L 1080 1080 L 1080 0 L 0 0 Z "/>
</clipPath>
<g clip-path="url(#cp0)">
<path transform="matrix(1,0,0,-1,239.8427,859.3003)" d="M 0 0 L 15.268 0 L 15.268 -1.22 C 15.268 -3.996 14.942 -6.453 14.288 -8.59 C 13.649 -10.569 12.572 -12.421 11.057 -14.143 C 7.626 -18.005 3.264 -19.935 -2.033 -19.935 C -7.202 -19.935 -11.63 -18.067 -15.315 -14.335 C -19 -10.586 -20.843 -6.086 -20.843 -.838 C -20.843 4.523 -18.969 9.071 -15.22 12.803 C -11.471 16.552 -6.907 18.428 -1.531 18.428 C 1.356 18.428 4.053 17.836 6.558 16.657 C 8.951 15.476 11.304 13.561 13.617 10.914 L 9.645 7.108 C 6.614 11.145 2.921 13.162 -1.435 13.162 C -5.344 13.162 -8.623 11.814 -11.271 9.118 C -13.92 6.47 -15.243 3.152 -15.243 -.838 C -15.243 -4.954 -13.767 -8.344 -10.817 -11.009 C -8.057 -13.482 -5.064 -14.717 -1.843 -14.717 C .902 -14.717 3.367 -13.792 5.553 -11.942 C 7.739 -10.074 8.959 -7.842 9.215 -5.241 L 0 -5.241 Z " fill="#022539"/>
<path transform="matrix(1,0,0,-1,265.497,866.8142)" d="M 0 0 C 0 -2.234 .599 -4.053 1.796 -5.456 C 3.024 -6.877 4.571 -7.586 6.437 -7.586 C 8.433 -7.586 10.043 -6.901 11.272 -5.528 C 12.5 -4.108 13.115 -2.306 13.115 -.12 C 13.115 2.066 12.5 3.868 11.272 5.289 C 10.043 6.676 8.448 7.37 6.486 7.37 C 4.635 7.37 3.088 6.668 1.843 5.264 C .615 3.844 0 2.089 0 0 M 12.78 11.583 L 18.189 11.583 L 18.189 -11.726 L 12.78 -11.726 L 12.78 -9.285 C 10.563 -11.36 8.177 -12.396 5.625 -12.396 C 2.401 -12.396 -.262 -11.232 -2.368 -8.902 C -4.459 -6.526 -5.503 -3.559 -5.503 0 C -5.503 3.493 -4.459 6.405 -2.368 8.734 C -.279 11.063 2.337 12.229 5.481 12.229 C 8.193 12.229 10.627 11.112 12.78 8.878 Z " fill="#022539"/>
<path transform="matrix(1,0,0,-1,290.4821,855.2313)" d="M 0 0 L 5.384 0 L 5.384 -2.083 C 6.373 -1.045 7.252 -.335 8.016 .047 C 8.798 .446 9.725 .646 10.793 .646 C 12.213 .646 13.697 .183 15.245 -.743 L 12.78 -5.671 C 11.758 -4.938 10.761 -4.571 9.789 -4.571 C 6.852 -4.571 5.384 -6.788 5.384 -11.224 L 5.384 -23.309 L 0 -23.309 Z " fill="#022539"/>
<path transform="matrix(1,0,0,-1,309.5555,855.2313)" d="M 0 0 L 5.384 0 L 5.384 -2.155 C 6.422 -1.069 7.306 -.335 8.041 .047 C 8.823 .446 9.804 .646 10.984 .646 C 13.617 .646 15.699 -.502 17.231 -2.801 C 18.922 -.502 21.211 .646 24.099 .646 C 29.347 .646 31.972 -2.537 31.972 -8.902 L 31.972 -23.309 L 26.564 -23.309 L 26.564 -10.363 C 26.564 -8.129 26.292 -6.55 25.75 -5.625 C 25.191 -4.684 24.274 -4.213 22.997 -4.213 C 21.514 -4.213 20.434 -4.771 19.755 -5.888 C 19.077 -7.004 18.738 -8.8 18.738 -11.272 L 18.738 -23.309 L 13.33 -23.309 L 13.33 -10.435 C 13.33 -6.286 12.134 -4.213 9.74 -4.213 C 8.224 -4.213 7.119 -4.779 6.425 -5.912 C 5.732 -7.044 5.384 -8.831 5.384 -11.272 L 5.384 -23.309 L 0 -23.309 Z " fill="#022539"/>
<path transform="matrix(1,0,0,-1,364.022,863.75149)" d="M 0 0 C -.75 2.872 -2.56 4.308 -5.433 4.308 C -6.086 4.308 -6.701 4.208 -7.275 4.008 C -7.849 3.808 -8.372 3.521 -8.842 3.147 C -9.313 2.772 -9.715 2.322 -10.051 1.796 C -10.386 1.268 -10.641 .671 -10.817 0 Z M 5.528 -4.403 L -11.176 -4.403 C -11.032 -6.317 -10.41 -7.842 -9.31 -8.974 C -8.208 -10.091 -6.796 -10.648 -5.074 -10.648 C -3.734 -10.648 -2.624 -10.33 -1.747 -9.692 C -.885 -9.054 .097 -7.873 1.197 -6.15 L 5.743 -8.687 C 5.041 -9.884 4.3 -10.909 3.518 -11.762 C 2.737 -12.616 1.899 -13.318 1.005 -13.867 C .112 -14.418 -.853 -14.82 -1.891 -15.076 C -2.927 -15.332 -4.052 -15.458 -5.264 -15.458 C -8.743 -15.458 -11.535 -14.343 -13.641 -12.109 C -15.747 -9.859 -16.799 -6.876 -16.799 -3.158 C -16.799 .527 -15.778 3.51 -13.736 5.791 C -11.678 8.041 -8.949 9.166 -5.551 9.166 C -2.122 9.166 .59 8.072 2.585 5.888 C 4.564 3.718 5.553 .71 5.553 -3.134 Z " fill="#022539"/>
<path transform="matrix(1,0,0,-1,375.438,855.2313)" d="M 0 0 L 5.409 0 L 5.409 -2.155 C 7.291 -.287 9.413 .646 11.775 .646 C 14.486 .646 16.601 -.208 18.115 -1.914 C 19.424 -3.367 20.078 -5.735 20.078 -9.023 L 20.078 -23.309 L 14.671 -23.309 L 14.671 -10.291 C 14.671 -7.993 14.351 -6.406 13.713 -5.528 C 13.09 -4.635 11.957 -4.188 10.314 -4.188 C 8.528 -4.188 7.26 -4.779 6.509 -5.96 C 5.776 -7.124 5.409 -9.158 5.409 -12.062 L 5.409 -23.309 L 0 -23.309 Z " fill="#022539"/>
<path transform="matrix(1,0,0,-1,407.8652,860.2567)" d="M 0 0 L 0 -18.284 L -5.386 -18.284 L -5.386 0 L -7.682 0 L -7.682 5.025 L -5.386 5.025 L -5.386 13.569 L 0 13.569 L 0 5.025 L 4.188 5.025 L 4.188 0 Z " fill="#022539"/>
<path transform="matrix(1,0,0,-1,435.2404,866.8142)" d="M 0 0 C 0 -2.234 .599 -4.053 1.796 -5.456 C 3.024 -6.877 4.571 -7.586 6.437 -7.586 C 8.433 -7.586 10.043 -6.901 11.272 -5.528 C 12.5 -4.108 13.115 -2.306 13.115 -.12 C 13.115 2.066 12.5 3.868 11.272 5.289 C 10.043 6.676 8.448 7.37 6.486 7.37 C 4.635 7.37 3.088 6.668 1.843 5.264 C .615 3.844 0 2.089 0 0 M 12.78 11.583 L 18.189 11.583 L 18.189 -11.726 L 12.78 -11.726 L 12.78 -9.285 C 10.563 -11.36 8.177 -12.396 5.625 -12.396 C 2.401 -12.396 -.262 -11.232 -2.368 -8.902 C -4.459 -6.526 -5.503 -3.559 -5.503 0 C -5.503 3.493 -4.459 6.405 -2.368 8.734 C -.279 11.063 2.337 12.229 5.481 12.229 C 8.193 12.229 10.627 11.112 12.78 8.878 Z " fill="#022539"/>
<path transform="matrix(1,0,0,-1,460.2255,855.2313)" d="M 0 0 L 5.409 0 L 5.409 -2.155 C 7.291 -.287 9.413 .646 11.775 .646 C 14.486 .646 16.601 -.208 18.115 -1.914 C 19.424 -3.367 20.078 -5.735 20.078 -9.023 L 20.078 -23.309 L 14.671 -23.309 L 14.671 -10.291 C 14.671 -7.993 14.351 -6.406 13.713 -5.528 C 13.09 -4.635 11.957 -4.188 10.314 -4.188 C 8.528 -4.188 7.26 -4.779 6.509 -5.96 C 5.776 -7.124 5.409 -9.158 5.409 -12.062 L 5.409 -23.309 L 0 -23.309 Z " fill="#022539"/>
<path transform="matrix(1,0,0,-1,491.5028,866.8142)" d="M 0 0 C 0 -2.234 .599 -4.053 1.796 -5.456 C 3.024 -6.877 4.571 -7.586 6.437 -7.586 C 8.433 -7.586 10.043 -6.901 11.272 -5.528 C 12.5 -4.108 13.115 -2.306 13.115 -.12 C 13.115 2.066 12.5 3.868 11.272 5.289 C 10.043 6.676 8.448 7.37 6.486 7.37 C 4.635 7.37 3.088 6.668 1.843 5.264 C .615 3.844 0 2.089 0 0 M 12.78 28.694 L 18.189 28.694 L 18.189 -11.726 L 12.78 -11.726 L 12.78 -9.285 C 10.658 -11.36 8.257 -12.396 5.576 -12.396 C 2.386 -12.396 -.262 -11.232 -2.368 -8.902 C -4.459 -6.526 -5.503 -3.559 -5.503 0 C -5.503 3.478 -4.459 6.381 -2.368 8.711 C -.295 11.056 2.314 12.229 5.458 12.229 C 8.185 12.229 10.627 11.112 12.78 8.878 Z " fill="#022539"/>
<path transform="matrix(1,0,0,-1,542.8364,846.8312)" d="M 0 0 L 0 -31.709 L -5.576 -31.709 L -5.576 0 L -14.071 0 L -14.071 5.241 L 8.472 5.241 L 8.472 0 Z " fill="#022539"/>
<path transform="matrix(1,0,0,-1,568.9448,863.75149)" d="M 0 0 C -.75 2.872 -2.56 4.308 -5.433 4.308 C -6.086 4.308 -6.701 4.208 -7.275 4.008 C -7.849 3.808 -8.372 3.521 -8.842 3.147 C -9.313 2.772 -9.715 2.322 -10.051 1.796 C -10.386 1.268 -10.641 .671 -10.817 0 Z M 5.528 -4.403 L -11.176 -4.403 C -11.032 -6.317 -10.41 -7.842 -9.31 -8.974 C -8.208 -10.091 -6.796 -10.648 -5.074 -10.648 C -3.734 -10.648 -2.624 -10.33 -1.747 -9.692 C -.885 -9.054 .097 -7.873 1.197 -6.15 L 5.743 -8.687 C 5.041 -9.884 4.3 -10.909 3.518 -11.762 C 2.737 -12.616 1.899 -13.318 1.005 -13.867 C .112 -14.418 -.853 -14.82 -1.891 -15.076 C -2.927 -15.332 -4.052 -15.458 -5.264 -15.458 C -8.743 -15.458 -11.535 -14.343 -13.641 -12.109 C -15.747 -9.859 -16.799 -6.876 -16.799 -3.158 C -16.799 .527 -15.778 3.51 -13.736 5.791 C -11.678 8.041 -8.949 9.166 -5.551 9.166 C -2.122 9.166 .59 8.072 2.585 5.888 C 4.564 3.718 5.553 .71 5.553 -3.134 Z " fill="#022539"/>
<path transform="matrix(1,0,0,-1,586.6531,865.92959)" d="M 0 0 L -8.375 10.698 L -1.961 10.698 L 3.231 3.902 L 8.52 10.698 L 15.125 10.698 L 6.509 0 L 16.49 -12.611 L 10.076 -12.611 L 3.231 -3.9 L -3.78 -12.611 L -10.361 -12.611 Z " fill="#022539"/>
<path transform="matrix(1,0,0,-1,612.3324,860.2567)" d="M 0 0 L 0 -18.284 L -5.386 -18.284 L -5.386 0 L -7.682 0 L -7.682 5.025 L -5.386 5.025 L -5.386 13.569 L 0 13.569 L 0 5.025 L 4.188 5.025 L 4.188 0 Z " fill="#022539"/>
<path transform="matrix(1,0,0,-1,0,1080)" d="M 625.566 201.459 L 620.182 201.459 L 620.182 224.768 L 625.566 224.768 Z M 619.369 234.461 C 619.369 235.401 619.711 236.216 620.397 236.901 C 621.084 237.587 621.904 237.931 622.862 237.931 C 623.836 237.931 624.664 237.587 625.351 236.901 C 626.037 236.232 626.38 235.409 626.38 234.437 C 626.38 233.464 626.037 232.634 625.351 231.947 C 624.681 231.262 623.859 230.919 622.886 230.919 C 621.912 230.919 621.084 231.262 620.397 231.947 C 619.711 232.634 619.369 233.472 619.369 234.461 " fill="#022539"/>
<path transform="matrix(1,0,0,-1,0,1080)" d="M 637.77 201.459 L 632.38607 201.459 L 632.38607 241.879 L 637.77 241.879 Z " fill="#022539"/>
<path transform="matrix(1,0,0,-1,660.2898,863.75149)" d="M 0 0 C -.75 2.872 -2.56 4.308 -5.433 4.308 C -6.086 4.308 -6.701 4.208 -7.275 4.008 C -7.849 3.808 -8.372 3.521 -8.842 3.147 C -9.313 2.772 -9.715 2.322 -10.051 1.796 C -10.386 1.268 -10.641 .671 -10.817 0 Z M 5.528 -4.403 L -11.176 -4.403 C -11.032 -6.317 -10.41 -7.842 -9.31 -8.974 C -8.208 -10.091 -6.796 -10.648 -5.074 -10.648 C -3.734 -10.648 -2.624 -10.33 -1.747 -9.692 C -.885 -9.054 .097 -7.873 1.197 -6.15 L 5.743 -8.687 C 5.041 -9.884 4.3 -10.909 3.518 -11.762 C 2.737 -12.616 1.899 -13.318 1.005 -13.867 C .112 -14.418 -.853 -14.82 -1.891 -15.076 C -2.927 -15.332 -4.052 -15.458 -5.264 -15.458 C -8.743 -15.458 -11.535 -14.343 -13.641 -12.109 C -15.747 -9.859 -16.799 -6.876 -16.799 -3.158 C -16.799 .527 -15.778 3.51 -13.736 5.791 C -11.678 8.041 -8.949 9.166 -5.551 9.166 C -2.122 9.166 .59 8.072 2.585 5.888 C 4.564 3.718 5.553 .71 5.553 -3.134 Z " fill="#022539"/>
<path transform="matrix(1,0,0,-1,0,1080)" d="M 693.436 201.459 L 687.86 201.459 L 687.86 238.409 L 693.436 238.409 Z " fill="#022539"/>
<path transform="matrix(1,0,0,-1,701.284,855.2313)" d="M 0 0 L 5.409 0 L 5.409 -2.155 C 7.291 -.287 9.413 .646 11.775 .646 C 14.486 .646 16.601 -.208 18.115 -1.914 C 19.424 -3.367 20.078 -5.735 20.078 -9.023 L 20.078 -23.309 L 14.671 -23.309 L 14.671 -10.291 C 14.671 -7.993 14.351 -6.406 13.713 -5.528 C 13.09 -4.635 11.957 -4.188 10.314 -4.188 C 8.528 -4.188 7.26 -4.779 6.509 -5.96 C 5.776 -7.124 5.409 -9.158 5.409 -12.062 L 5.409 -23.309 L 0 -23.309 Z " fill="#022539"/>
<path transform="matrix(1,0,0,-1,732.5613,866.8142)" d="M 0 0 C 0 -2.234 .599 -4.053 1.796 -5.456 C 3.024 -6.877 4.571 -7.586 6.437 -7.586 C 8.433 -7.586 10.043 -6.901 11.272 -5.528 C 12.5 -4.108 13.115 -2.306 13.115 -.12 C 13.115 2.066 12.5 3.868 11.272 5.289 C 10.043 6.676 8.448 7.37 6.486 7.37 C 4.635 7.37 3.088 6.668 1.843 5.264 C .615 3.844 0 2.089 0 0 M 12.78 28.694 L 18.189 28.694 L 18.189 -11.726 L 12.78 -11.726 L 12.78 -9.285 C 10.658 -11.36 8.257 -12.396 5.576 -12.396 C 2.386 -12.396 -.262 -11.232 -2.368 -8.902 C -4.459 -6.526 -5.503 -3.559 -5.503 0 C -5.503 3.478 -4.459 6.381 -2.368 8.711 C -.295 11.056 2.314 12.229 5.458 12.229 C 8.185 12.229 10.627 11.112 12.78 8.878 Z " fill="#022539"/>
<path transform="matrix(1,0,0,-1,762.9306,855.2313)" d="M 0 0 L 0 -13.379 C 0 -17.239 1.524 -19.169 4.571 -19.169 C 7.618 -19.169 9.143 -17.239 9.143 -13.379 L 9.143 0 L 14.527 0 L 14.527 -13.497 C 14.527 -15.365 14.294 -16.977 13.833 -18.332 C 13.386 -19.545 12.613 -20.637 11.511 -21.61 C 9.692 -23.189 7.38 -23.979 4.571 -23.979 C 1.779 -23.979 -.526 -23.189 -2.345 -21.61 C -3.462 -20.637 -4.252 -19.545 -4.713 -18.332 C -5.161 -17.246 -5.384 -15.636 -5.384 -13.497 L -5.384 0 Z " fill="#022539"/>
<path transform="matrix(1,0,0,-1,797.7994,859.2036)" d="M 0 0 L -4.451 -2.37 C -5.153 -.935 -6.024 -.215 -7.06 -.215 C -7.554 -.215 -7.977 -.379 -8.328 -.707 C -8.679 -1.034 -8.856 -1.453 -8.856 -1.963 C -8.856 -2.857 -7.818 -3.743 -5.745 -4.62 C -2.888 -5.848 -.966 -6.98 .023 -8.018 C 1.013 -9.055 1.507 -10.45 1.507 -12.205 C 1.507 -14.455 .677 -16.338 -.981 -17.853 C -2.593 -19.289 -4.54 -20.006 -6.821 -20.006 C -10.729 -20.006 -13.497 -18.101 -15.125 -14.288 L -10.53 -12.157 C -9.892 -13.274 -9.405 -13.984 -9.071 -14.288 C -8.416 -14.894 -7.634 -15.196 -6.724 -15.196 C -4.907 -15.196 -3.997 -14.368 -3.997 -12.708 C -3.997 -11.751 -4.699 -10.857 -6.103 -10.027 C -6.645 -9.757 -7.188 -9.494 -7.731 -9.238 C -8.272 -8.984 -8.823 -8.72 -9.381 -8.448 C -10.945 -7.682 -12.046 -6.916 -12.684 -6.15 C -13.497 -5.178 -13.904 -3.925 -13.904 -2.393 C -13.904 -.368 -13.21 1.307 -11.823 2.632 C -10.403 3.955 -8.679 4.618 -6.653 4.618 C -3.67 4.618 -1.453 3.078 0 0 " fill="#022539"/>
<path transform="matrix(1,0,0,-1,809.6929,860.2567)" d="M 0 0 L 0 -18.284 L -5.386 -18.284 L -5.386 0 L -7.682 0 L -7.682 5.025 L -5.386 5.025 L -5.386 13.569 L 0 13.569 L 0 5.025 L 4.188 5.025 L 4.188 0 Z " fill="#022539"/>
<path transform="matrix(1,0,0,-1,817.5422,855.2313)" d="M 0 0 L 5.384 0 L 5.384 -2.083 C 6.373 -1.045 7.252 -.335 8.016 .047 C 8.798 .446 9.725 .646 10.793 .646 C 12.213 .646 13.697 .183 15.245 -.743 L 12.78 -5.671 C 11.758 -4.938 10.761 -4.571 9.789 -4.571 C 6.852 -4.571 5.384 -6.788 5.384 -11.224 L 5.384 -23.309 L 0 -23.309 Z " fill="#022539"/>
<path transform="matrix(1,0,0,-1,845.373,874.2095)" d="M 0 0 L -10.481 18.978 L -4.236 18.978 L 2.896 5.576 L 9.548 18.978 L 15.627 18.978 L -2.944 -17.014 L -9.094 -17.014 Z " fill="#022539"/>
<path transform="matrix(1,0,0,-1,219,679.01626)" d="M 0 0 L 48.33 0 L 48.33 -15.099 L 19.17 -15.099 L 19.17 -52.92 L 42.04 -52.92 L 42.04 -68.02 L 19.17 -68.02 L 19.17 -126.417 L 0 -126.417 Z " fill="#0cc4b6"/>
<path transform="matrix(1,0,0,-1,314.4045,768.3528)" d="M 0 0 L -8.881 62.987 L -9.697 62.987 L -18.652 0 Z M -20.354 89.337 L 1.702 89.337 L 25.09 -37.081 L 5.698 -37.081 L 2.22 -14.432 L -20.872 -14.432 L -24.203 -37.081 L -43.668 -37.081 Z " fill="#0cc4b6"/>
<path transform="matrix(1,0,0,-1,366.8802,806.6172)" d="M 0 0 C -4.738 0 -8.709 .739 -11.917 2.22 C -15.126 3.7 -17.702 5.71 -19.65 8.253 C -21.602 10.793 -22.994 13.767 -23.832 17.171 C -24.673 20.575 -25.092 24.176 -25.092 27.977 C -25.092 30.642 -24.919 33.64 -24.574 36.97 C -24.228 40.301 -23.71 43.643 -23.019 46.999 L -7.698 46.999 L -7.919 31.603 C -7.919 28.348 -7.771 25.621 -7.477 23.426 C -7.179 21.229 -6.725 19.476 -6.107 18.171 C -5.49 16.862 -4.7 15.925 -3.737 15.357 C -2.777 14.789 -1.606 14.506 -.224 14.506 C .912 14.506 1.936 14.728 2.85 15.173 C 3.762 15.616 4.54 16.394 5.18 17.504 C 5.82 18.614 6.316 20.119 6.661 22.019 C 7.007 23.918 7.179 26.299 7.179 29.161 L 7.4 127.601 L 26.571 127.601 L 26.571 31.826 C 26.571 25.313 25.831 19.983 24.35 15.839 C 22.869 11.694 20.883 8.448 18.393 6.106 C 15.901 3.761 13.063 2.158 9.88 1.294 C 6.699 .432 3.404 0 0 0 " fill="#0cc4b6"/>
<path transform="matrix(1,0,0,-1,448.8889,768.3528)" d="M 0 0 L -8.881 62.987 L -9.697 62.987 L -18.652 0 Z M -20.354 89.337 L 1.702 89.337 L 25.09 -37.081 L 5.698 -37.081 L 2.22 -14.432 L -20.872 -14.432 L -24.203 -37.081 L -43.668 -37.081 Z " fill="#0cc4b6"/>
<path transform="matrix(1,0,0,-1,507.8784,744.29727)" d="M 0 0 C 3.353 0 6.191 .37 8.511 1.11 C 10.83 1.849 12.705 3.096 14.135 4.847 C 15.565 6.599 16.602 8.918 17.245 11.806 C 17.885 14.691 18.207 18.256 18.207 22.5 L 18.207 32.492 C 18.207 35.748 17.91 38.562 17.318 40.929 C 16.726 43.298 15.728 45.247 14.321 46.776 C 12.916 48.306 11.051 49.441 8.734 50.182 C 6.412 50.921 3.503 51.292 0 51.292 L -2.889 51.292 L -2.889 0 Z M -21.688 65.281 L -.889 65.281 C 1.479 65.281 4.083 65.181 6.92 64.984 C 9.755 64.787 12.593 64.305 15.431 63.541 C 18.268 62.775 21.007 61.628 23.647 60.1 C 26.286 58.569 28.631 56.473 30.679 53.808 C 32.726 51.143 34.367 47.8 35.599 43.78 C 36.834 39.757 37.451 34.884 37.451 29.162 L 37.451 25.979 C 37.451 16.357 36.069 8.523 33.305 2.479 C 30.541 -3.566 26.472 -7.92 21.093 -10.585 L 41.374 -61.136 L 21.093 -61.136 L 4.291 -13.84 L -2.889 -13.84 L -2.889 -61.136 L -21.688 -61.136 Z " fill="#0cc4b6"/>
<path transform="matrix(1,0,0,-1,611.3489,806.6172)" d="M 0 0 C -4.735 0 -8.709 .739 -11.915 2.22 C -15.123 3.7 -17.702 5.71 -19.651 8.253 C -21.599 10.793 -22.994 13.767 -23.832 17.171 C -24.67 20.575 -25.09 24.176 -25.09 27.977 C -25.09 30.642 -24.917 33.64 -24.571 36.97 C -24.228 40.301 -23.71 43.643 -23.017 46.999 L -7.698 46.999 L -7.919 31.603 C -7.919 28.348 -7.771 25.621 -7.474 23.426 C -7.179 21.229 -6.722 19.476 -6.105 18.171 C -5.49 16.862 -4.7 15.925 -3.737 15.357 C -2.774 14.789 -1.603 14.506 -.221 14.506 C .915 14.506 1.936 14.728 2.85 15.173 C 3.762 15.616 4.54 16.394 5.182 17.504 C 5.823 18.614 6.316 20.119 6.661 22.019 C 7.007 23.918 7.179 26.299 7.179 29.161 L 7.403 127.601 L 26.573 127.601 L 26.573 31.826 C 26.573 25.313 25.831 19.983 24.353 15.839 C 22.872 11.694 20.885 8.448 18.393 6.106 C 15.901 3.761 13.066 2.158 9.882 1.294 C 6.699 .432 3.407 0 0 0 " fill="#13464b"/>
<path transform="matrix(1,0,0,-1,693.3575,768.3528)" d="M 0 0 L -8.881 62.987 L -9.697 62.987 L -18.652 0 Z M -20.354 89.337 L 1.702 89.337 L 25.09 -37.081 L 5.698 -37.081 L 2.22 -14.432 L -20.872 -14.432 L -24.203 -37.081 L -43.668 -37.081 Z " fill="#13464b"/>
<path transform="matrix(1,0,0,-1,745.6859,763.3189)" d="M 0 0 L -25.461 84.303 L -6.143 84.303 L 9.326 23.832 L 10.213 23.832 L 25.534 84.303 L 44.778 84.303 L 19.17 0 L 19.17 -42.115 L 0 -42.115 Z " fill="#13464b"/>
<path transform="matrix(1,0,0,-1,835.9104,768.3528)" d="M 0 0 L -8.881 62.987 L -9.697 62.987 L -18.652 0 Z M -20.354 89.337 L 1.702 89.337 L 25.09 -37.081 L 5.698 -37.081 L 2.22 -14.432 L -20.872 -14.432 L -24.203 -37.081 L -43.668 -37.081 Z " fill="#13464b"/>
<path transform="matrix(1,0,0,-1,502.2192,253.11688)" d="M 0 0 L 207.315 0 L 229.062 64.34 L -142.902 64.34 C -161.277 64.34 -166.424 47.736 -166.424 47.736 L -255.849 -214.468 L -209.318 -214.468 L -223.154 -255.978 L -192.022 -255.978 L -194.789 -276.041 L -188.563 -276.041 L -176.801 -255.978 L -148.436 -255.978 L -134.6 -214.468 L -89.193 -214.468 L -59.882 -130.065 C -57.114 -121.071 -48.812 -114.844 -37.051 -114.844 L 57.957 -114.844 L 79.704 -49.611 L -33.434 -49.611 L -21.746 -15.541 C -15.604 .692 0 0 0 0 " fill="#0cc4b6"/>
<path transform="matrix(1,0,0,-1,761.9227,589.7488)" d="M 0 0 C .136 .299 1.809 5.151 4.623 13.378 L 98.648 291.695 C 98.729 292.188 98.8 292.687 98.856 293.212 C 99.001 294.271 99.077 295.35 99.077 296.443 L 99.077 296.533 C 99.029 309.678 88.382 320.319 75.244 320.367 L -265.622 320.367 L -276.692 286.82 L -68.983 287.021 L -144.448 65.835 C -154.825 40.597 -180.312 40.562 -180.451 40.562 L -542.923 40.562 C -539.09 6.482 -507.535 -23.813 -475.94 -23.813 L -36.896 -23.813 C -20.492 -23.813 -6.372 -14.058 -.014 -.035 C -.007 -.021 -.007 -.007 0 0 " fill="#13464b"/>
</g>
</g>
</g>
</svg>
